<?xml version="1.0" encoding="UTF-8" standalone="no"?>
<svg width="47px" height="47px" viewBox="0 0 47 47" version="1.1" xmlns="http://www.w3.org/2000/svg" xmlns:xlink="http://www.w3.org/1999/xlink" xmlns:sketch="http://www.bohemiancoding.com/sketch/ns">
    <!-- Generator: sketchtool 3.5.1 (25234) - http://www.bohemiancoding.com/sketch -->
    <title>connect_ico</title>
    <desc>Created with sketchtool.</desc>
    <defs>
        <filter x="-50%" y="-50%" width="200%" height="200%" filterUnits="objectBoundingBox" id="filter-1">
            <feOffset dx="0" dy="1" in="SourceAlpha" result="shadowOffsetInner1"></feOffset>
            <feGaussianBlur stdDeviation="0.5" in="shadowOffsetInner1" result="shadowBlurInner1"></feGaussianBlur>
            <feComposite in="shadowBlurInner1" in2="SourceAlpha" operator="arithmetic" k2="-1" k3="1" result="shadowInnerInner1"></feComposite>
            <feColorMatrix values="0 0 0 0 0.239215686   0 0 0 0 0.274509804   0 0 0 0 0.301960784  0 0 0 0.14 0" in="shadowInnerInner1" type="matrix" result="shadowMatrixInner1"></feColorMatrix>
            <feMerge>
                <feMergeNode in="SourceGraphic"></feMergeNode>
                <feMergeNode in="shadowMatrixInner1"></feMergeNode>
            </feMerge>
        </filter>
        <path d="M24.4905726,31.7082586 C22.5250698,31.7082586 20.925852,30.0887068 20.925852,28.0980485 C20.925852,26.1073903 22.5250698,24.4878385 24.4905726,24.4878385 C26.4551038,24.4878385 28.0543216,26.1073903 28.0543216,28.0980485 C28.0543216,30.0887068 26.4551038,31.7082586 24.4905726,31.7082586 M15.9814904,31.7082586 C14.0159876,31.7082586 12.4157983,30.0887068 12.4157983,28.0980485 C12.4157983,26.1073903 14.0159876,24.4878385 15.9814904,24.4878385 C17.9479648,24.4878385 19.5462109,26.1073903 19.5462109,28.0980485 C19.5462109,30.0887068 17.9479648,31.7082586 15.9814904,31.7082586 M7.47337979,31.7082586 C5.50690544,31.7082586 3.90865924,30.0887068 3.90865924,28.0980485 C3.90865924,26.1073903 5.50690544,24.4878385 7.47337979,24.4878385 C9.43888256,24.4878385 11.0381003,26.1073903 11.0381003,28.0980485 C11.0381003,30.0887068 9.43888256,31.7082586 7.47337979,31.7082586 M27.0127897,17.3937316 L7.89893106,17.3937316 L4.95019111,17.3937316 C2.22005627,17.3937316 0,19.6419123 0,22.4061171 L0,38.3147374 C0,41.0789422 2.22005627,43.3261437 4.95019111,43.3261437 L16.5634658,43.3261437 L19.3276058,45.5743244 C20.2564346,46.4937677 21.483538,47 22.7922538,47 C24.1184581,47 25.3620783,46.4800593 26.2646744,45.5645327 C28.2525235,43.7207503 31.4956517,40.4894801 31.916345,38.6780105 C31.946464,38.550718 31.9639524,38.4283214 31.9639524,38.3147374 L31.9639524,22.4061171 C31.9639524,19.6419123 29.7429245,17.3937316 27.0127897,17.3937316 Z M33.4543534,21.0798276 C33.418405,21.1894949 33.3610819,21.2844747 33.294043,21.3706419 C33.294043,21.3902254 33.2998725,21.4078505 33.2998725,21.4274339 L33.2998725,27.944808 C36.2758166,26.0785047 38.1159858,22.8100259 38.1159858,19.2438786 C38.1159858,13.5911141 33.5806586,8.99193953 28.0057426,8.99193953 C23.5112217,8.99193953 19.5335804,12.077313 18.3006476,16.4140693 L22.9953137,16.4140693 C23.0001716,16.4062359 23.0001716,16.3964441 23.0050295,16.3866524 C24.0222719,14.5614743 25.9382242,13.4266131 28.0057426,13.4266131 C31.1730877,13.4266131 33.7506848,16.0361086 33.7506848,19.2438786 C33.7506848,19.8627158 33.6506122,20.4805738 33.4543534,21.0798276 Z M28.0056455,0 C18.6133987,0 10.607594,7.03633564 9.23475397,16.4148526 L16.3544793,16.4148526 C17.6369626,11.0010063 22.4948537,7.09410684 28.0056455,7.09410684 C34.618207,7.09410684 39.9988072,12.5441826 39.9988072,19.2436828 C39.9988072,23.710669 37.580549,27.8094863 33.6884066,29.9391871 C33.5650162,30.00675 33.4319099,30.0380836 33.2997753,30.0468961 L33.2997753,37.3358583 C33.2997753,37.4494424 33.2822869,37.571839 33.252168,37.6991315 C33.33961,37.6971731 33.427052,37.6864022 33.5144941,37.6589854 C41.4542314,35.2169284 47,27.6440061 47,19.2436828 C47,8.63238729 38.4792589,0 28.0056455,0 Z" id="path-2"></path>
    </defs>
    <g id="Student" stroke="none" stroke-width="1" fill="none" fill-rule="evenodd" sketch:type="MSPage">
        <g id="S4.21--CourseGroup_Homepage" sketch:type="MSArtboardGroup" transform="translate(-24.000000, -789.000000)" filter="url(#filter-1)">
            <g id="Menu" sketch:type="MSLayerGroup" transform="translate(-1.000000, 0.000000)">
                <g id="Menu_item04_connect" transform="translate(1.000000, 762.000000)">
                    <g id="connect_ico" transform="translate(24.000000, 27.000000)">
                        <g id="Mask">
                            <use fill="none" sketch:type="MSShapeGroup" xlink:href="#path-2"></use>
                            <use fill="#9967CC" fill-rule="evenodd" xlink:href="#path-2"></use>
                        </g>
                    </g>
                </g>
            </g>
        </g>
    </g>
</svg>