<?xml version="1.0" encoding="UTF-8" standalone="no"?>
<svg width="20px" height="20px" viewBox="0 0 20 20" version="1.1" xmlns="http://www.w3.org/2000/svg" xmlns:xlink="http://www.w3.org/1999/xlink" xmlns:sketch="http://www.bohemiancoding.com/sketch/ns">
    <!-- Generator: Sketch 3.5.1 (25234) - http://www.bohemiancoding.com/sketch -->
    <title>Fill 39</title>
    <desc>Created with Sketch.</desc>
    <defs></defs>
    <g id="Overall" stroke="none" stroke-width="1" fill="none" fill-rule="evenodd" sketch:type="MSPage">
        <g id="Login" sketch:type="MSArtboardGroup" transform="translate(-887.000000, -392.000000)" fill="#66BB6A">
            <g id="Modal" sketch:type="MSLayerGroup" transform="translate(479.000000, 170.000000)">
                <g id="Email" transform="translate(37.000000, 192.000000)" sketch:type="MSShapeGroup">
                    <g id="Valid" transform="translate(314.721992, 22.323651)">
                        <path d="M75.0280083,25.1763485 C75.0280083,25.8638485 74.4680083,26.4263485 73.7780083,26.4263485 L58.7780083,26.4263485 C58.0880083,26.4263485 57.5280083,25.8638485 57.5280083,25.1763485 L57.5280083,10.1763485 C57.5280083,9.48884855 58.0880083,8.92634855 58.7780083,8.92634855 L73.7780083,8.92634855 C74.4680083,8.92634855 75.0280083,9.48884855 75.0280083,10.1763485 L75.0280083,25.1763485 L75.0280083,25.1763485 Z M73.7780083,7.67634855 L58.7780083,7.67634855 C57.3973833,7.67634855 56.2780083,8.79509855 56.2780083,10.1763485 L56.2780083,25.1763485 C56.2780083,26.5575985 57.3973833,27.6763485 58.7780083,27.6763485 L73.7780083,27.6763485 C75.1586333,27.6763485 76.2780083,26.5575985 76.2780083,25.1763485 L76.2780083,10.1763485 C76.2780083,8.79509855 75.1586333,7.67634855 73.7780083,7.67634855 L73.7780083,7.67634855 Z M70.0448833,13.3450985 C69.7455083,13.1700985 69.3636333,13.2763485 69.1911333,13.5700985 L65.1942583,20.4950985 L62.9580083,18.4325985 C62.7217583,18.1825985 62.3261333,18.1700985 62.0742583,18.4075985 C61.8223833,18.6388485 61.8092583,19.0388485 62.0455083,19.2888485 L64.9030083,21.9263485 C65.1386333,22.1763485 65.5342583,22.1888485 65.7861333,21.9513485 C65.8623833,21.8825985 70.2736333,14.1950985 70.2736333,14.1950985 C70.4461333,13.9013485 70.3436333,13.5138485 70.0448833,13.3450985 L70.0448833,13.3450985 Z" id="Fill-39"></path>
                    </g>
                </g>
            </g>
        </g>
    </g>
</svg>