<?xml version="1.0" encoding="UTF-8" standalone="no"?>
<svg width="20px" height="20px" viewBox="0 0 20 20" version="1.1" xmlns="http://www.w3.org/2000/svg" xmlns:xlink="http://www.w3.org/1999/xlink" xmlns:sketch="http://www.bohemiancoding.com/sketch/ns">
    <!-- Generator: Sketch 3.5.1 (25234) - http://www.bohemiancoding.com/sketch -->
    <title>Fill 40</title>
    <desc>Created with Sketch.</desc>
    <defs></defs>
    <g id="Overall" stroke="none" stroke-width="1" fill="none" fill-rule="evenodd" sketch:type="MSPage">
        <g id="Login" sketch:type="MSArtboardGroup" transform="translate(-835.000000, -392.000000)" fill="#FD8268">
            <g id="Modal" sketch:type="MSLayerGroup" transform="translate(479.000000, 170.000000)">
                <g id="Email" transform="translate(37.000000, 192.000000)" sketch:type="MSShapeGroup">
                    <g id="Valid" transform="translate(314.721992, 22.323651)">
                        <path d="M17.3717583,14.5825985 C17.1273833,14.3388485 16.7317583,14.3388485 16.4880083,14.5825985 L14.2780083,16.7950985 L12.0680083,14.5825985 C11.8242583,14.3388485 11.4286333,14.3388485 11.1842583,14.5825985 C10.9405083,14.8263485 10.9405083,15.2200985 11.1842583,15.4638485 L13.3942583,17.6763485 L11.1842583,19.8888485 C10.9405083,20.1325985 10.9405083,20.5263485 11.1842583,20.7700985 C11.4286333,21.0138485 11.8242583,21.0138485 12.0680083,20.7700985 L14.2780083,18.5575985 L16.4880083,20.7700985 C16.7317583,21.0138485 17.1273833,21.0138485 17.3717583,20.7700985 C17.6155083,20.5263485 17.6155083,20.1325985 17.3717583,19.8888485 L15.1617583,17.6763485 L17.3717583,15.4638485 C17.6155083,15.2200985 17.6155083,14.8263485 17.3717583,14.5825985 L17.3717583,14.5825985 Z M23.0280083,25.1763485 C23.0280083,25.8638485 22.4680083,26.4263485 21.7780083,26.4263485 L6.7780083,26.4263485 C6.0880083,26.4263485 5.5280083,25.8638485 5.5280083,25.1763485 L5.5280083,10.1763485 C5.5280083,9.48884855 6.0880083,8.92634855 6.7780083,8.92634855 L21.7780083,8.92634855 C22.4680083,8.92634855 23.0280083,9.48884855 23.0280083,10.1763485 L23.0280083,25.1763485 L23.0280083,25.1763485 Z M21.7780083,7.67634855 L6.7780083,7.67634855 C5.3973833,7.67634855 4.2780083,8.79509855 4.2780083,10.1763485 L4.2780083,25.1763485 C4.2780083,26.5575985 5.3973833,27.6763485 6.7780083,27.6763485 L21.7780083,27.6763485 C23.1586333,27.6763485 24.2780083,26.5575985 24.2780083,25.1763485 L24.2780083,10.1763485 C24.2780083,8.79509855 23.1586333,7.67634855 21.7780083,7.67634855 L21.7780083,7.67634855 Z" id="Fill-40"></path>
                    </g>
                </g>
            </g>
        </g>
    </g>
</svg>