<?xml version="1.0" encoding="UTF-8" standalone="no"?>
<svg width="102px" height="28px" viewBox="0 0 102 28" version="1.1" xmlns="http://www.w3.org/2000/svg" xmlns:xlink="http://www.w3.org/1999/xlink" xmlns:sketch="http://www.bohemiancoding.com/sketch/ns">
    <!-- Generator: sketchtool 3.5.1 (25234) - http://www.bohemiancoding.com/sketch -->
    <title>Logo_Bedopedia</title>
    <desc>Created with sketchtool.</desc>
    <defs>
        <linearGradient x1="-16.4331185%" y1="-19.1374132%" x2="124.038924%" y2="127.108502%" id="linearGradient-1">
            <stop stop-color="#C4DF9B" offset="0%"></stop>
            <stop stop-color="#3CB878" offset="31.823363%"></stop>
            <stop stop-color="#003663" offset="100%"></stop>
        </linearGradient>
    </defs>
    <g id="Student" stroke="none" stroke-width="1" fill="none" fill-rule="evenodd" sketch:type="MSPage">
        <g id="S4.21--CourseGroup_Homepage" sketch:type="MSArtboardGroup" transform="translate(-86.000000, -1096.000000)">
            <g id="Menu" sketch:type="MSLayerGroup" transform="translate(-1.000000, 0.000000)">
                <g id="logo.symbol" transform="translate(86.000000, 1095.000000)" sketch:type="MSShapeGroup">
                    <path d="M43.776,10.992 C43.776,11.2440013 43.7700001,11.5049987 43.758,11.775 C43.7459999,12.0450013 43.7070003,12.3059987 43.641,12.558 C43.5749997,12.8100013 43.4730007,13.0529988 43.335,13.287 C43.1969993,13.5210012 43.0020013,13.7279991 42.75,13.908 C43.2060023,14.1360011 43.5569988,14.5109974 43.803,15.033 C44.0490012,15.5550026 44.172,16.2599956 44.172,17.148 C44.172,17.5800022 44.1300004,18.0239977 44.046,18.48 C43.9619996,18.9360023 43.7970012,19.3499981 43.551,19.722 C43.3049988,20.0940019 42.9540023,20.3999988 42.498,20.64 C42.0419977,20.8800012 41.4420037,21 40.698,21 L36.54,21 L36.54,7.5 L40.536,7.5 C41.5080049,7.5 42.290997,7.79699703 42.885,8.391 C43.479003,8.98500297 43.776,9.8519943 43.776,10.992 L43.776,10.992 Z M37.836,13.368 L40.5,13.368 C40.7880014,13.368 41.0519988,13.3290004 41.292,13.251 C41.5320012,13.1729996 41.7389991,13.0440009 41.913,12.864 C42.0870009,12.6839991 42.2189995,12.4410015 42.309,12.135 C42.3990004,11.8289985 42.444,11.4480023 42.444,10.992 C42.444,10.5479978 42.3840006,10.1820014 42.264,9.894 C42.1439994,9.60599856 41.988001,9.38400078 41.796,9.228 C41.603999,9.07199922 41.3850012,8.9640003 41.139,8.904 C40.8929988,8.8439997 40.6440013,8.814 40.392,8.814 L37.836,8.814 L37.836,13.368 Z M42.84,17.076 C42.84,16.667998 42.7860005,16.3110015 42.678,16.005 C42.5699995,15.6989985 42.4260009,15.444001 42.246,15.24 C42.0659991,15.035999 41.8650011,14.8830005 41.643,14.781 C41.4209989,14.6789995 41.1960011,14.628 40.968,14.628 L37.836,14.628 L37.836,19.776 L40.662,19.776 C40.9980017,19.776 41.3009986,19.7310004 41.571,19.641 C41.8410013,19.5509996 42.0689991,19.401001 42.255,19.191 C42.4410009,18.980999 42.5849995,18.7050017 42.687,18.363 C42.7890005,18.0209983 42.84,17.5920026 42.84,17.076 L42.84,17.076 Z M50.724,12.54 C51.1560022,12.8880017 51.4379993,13.259998 51.57,13.656 C51.7020007,14.052002 51.768,14.4959975 51.768,14.988 L51.768,17.31 L46.512,17.706 L46.512,18.516 C46.512,19.0320026 46.6799983,19.4069988 47.016,19.641 C47.3520017,19.8750012 47.7719975,19.992 48.276,19.992 C48.6600019,19.992 49.0739978,19.9320006 49.518,19.812 C49.9620022,19.6919994 50.4059978,19.5120012 50.85,19.272 L51.39,20.298 C50.9099976,20.5860014 50.3940028,20.8109992 49.842,20.973 C49.2899972,21.1350008 48.7440027,21.216 48.204,21.216 C47.3039955,21.216 46.5870027,21.0060021 46.053,20.586 C45.5189973,20.1659979 45.2400001,19.4760048 45.216,18.516 L45.216,14.862 C45.216,14.4179978 45.2879993,14.0130018 45.432,13.647 C45.5760007,13.2809982 45.7829986,12.9690013 46.053,12.711 C46.3230013,12.4529987 46.6469981,12.2550007 47.025,12.117 C47.4030019,11.9789993 47.8259977,11.91 48.294,11.91 C48.7500023,11.91 49.2059977,11.9669994 49.662,12.081 C50.1180023,12.1950006 50.4719987,12.347999 50.724,12.54 L50.724,12.54 Z M50.472,14.862 C50.472,14.4899981 50.4000007,14.1900011 50.256,13.962 C50.1119993,13.7339989 49.938001,13.5570006 49.734,13.431 C49.529999,13.3049994 49.3200011,13.2210002 49.104,13.179 C48.8879989,13.1369998 48.7020008,13.116 48.546,13.116 C48.3299989,13.116 48.1020012,13.1399998 47.862,13.188 C47.6219988,13.2360002 47.403001,13.3229994 47.205,13.449 C47.006999,13.5750006 46.8420007,13.7519989 46.71,13.98 C46.5779993,14.2080011 46.512,14.5019982 46.512,14.862 L46.512,16.482 L50.472,16.176 L50.472,14.862 Z M59.958,8.4 L59.958,15.456 L59.958,21 C59.5019977,21.0480002 59.0160026,21.0929998 58.5,21.135 C57.9839974,21.1770002 57.4770025,21.198 56.979,21.198 C56.4809975,21.198 56.0100022,21.1650003 55.566,21.099 C55.1219978,21.0329997 54.7500015,20.9160008 54.45,20.748 C53.9699976,20.4839987 53.6040013,20.1450021 53.352,19.731 C53.0999987,19.3169979 52.974,18.7800033 52.974,18.12 L52.974,14.88 C52.974,14.4479978 53.0519992,14.0550018 53.208,13.701 C53.3640008,13.3469982 53.5739987,13.0440013 53.838,12.792 C54.1020013,12.5399987 54.4109982,12.3420007 54.765,12.198 C55.1190018,12.0539993 55.499998,11.982 55.908,11.982 C56.4120025,11.9699999 56.9159975,12.0209994 57.42,12.135 C57.9240025,12.2490006 58.3499983,12.3599995 58.698,12.468 L58.698,12.288 L58.698,11.82 C58.698,11.627999 58.701,11.4090012 58.707,11.163 C58.713,10.9169988 58.716,10.6680013 58.716,10.416 L58.752,8.4 L59.958,8.4 Z M58.698,13.656 C58.505999,13.5599995 58.2600015,13.4730004 57.96,13.395 C57.6599985,13.3169996 57.3480016,13.2570002 57.024,13.215 C56.6999984,13.1729998 56.3730016,13.1639999 56.043,13.188 C55.7129983,13.2120001 55.4160013,13.2869994 55.152,13.413 C54.8879987,13.5390006 54.6750008,13.7249988 54.513,13.971 C54.3509992,14.2170012 54.27,14.537998 54.27,14.934 L54.27,18.318 C54.27,18.7980024 54.4169985,19.1669987 54.711,19.425 C55.0050015,19.6830013 55.3709978,19.8659995 55.809,19.974 C56.2470022,20.0820005 56.7239974,20.133 57.24,20.127 C57.7560026,20.121 58.2419977,20.0940002 58.698,20.046 L58.698,13.656 Z M67.932,17.778 C67.932,18.8580054 67.6710026,19.694997 67.149,20.289 C66.6269974,20.883003 65.766006,21.18 64.566,21.18 C63.4139942,21.18 62.5560028,20.8710031 61.992,20.253 C61.4279972,19.6349969 61.146,18.8100052 61.146,17.778 L61.146,15.546 C61.146,15.0539975 61.1909995,14.6220019 61.281,14.25 C61.3710004,13.8779981 61.4969992,13.5600013 61.659,13.296 C61.8210008,13.0319987 62.0069989,12.8130009 62.217,12.639 C62.427001,12.4649991 62.6579987,12.3240005 62.91,12.216 C63.1260011,12.1199995 63.3629987,12.0450003 63.621,11.991 C63.8790013,11.9369997 64.1939981,11.91 64.566,11.91 C64.8780016,11.91 65.1719986,11.9369997 65.448,11.991 C65.7240014,12.0450003 65.9819988,12.1199995 66.222,12.216 C66.4740013,12.3240005 66.701999,12.4649991 66.906,12.639 C67.110001,12.8130009 67.2899992,13.0319987 67.446,13.296 C67.6020008,13.5600013 67.7219996,13.8749982 67.806,14.241 C67.8900004,14.6070018 67.932,15.0419975 67.932,15.546 L67.932,17.778 Z M66.618,15.366 C66.618,14.9459979 66.5580006,14.5920014 66.438,14.304 C66.3179994,14.0159986 66.162001,13.7820009 65.97,13.602 C65.777999,13.4219991 65.5590012,13.2930004 65.313,13.215 C65.0669988,13.1369996 64.8180013,13.098 64.566,13.098 C64.3139987,13.098 64.0590013,13.1369996 63.801,13.215 C63.5429987,13.2930004 63.315001,13.4219991 63.117,13.602 C62.918999,13.7820009 62.7570006,14.0159986 62.631,14.304 C62.5049994,14.5920014 62.442,14.9459979 62.442,15.366 L62.442,17.922 C62.442,18.2940019 62.4959995,18.6089987 62.604,18.867 C62.7120005,19.1250013 62.8589991,19.3349992 63.045,19.497 C63.2310009,19.6590008 63.4529987,19.7759996 63.711,19.848 C63.9690013,19.9200004 64.2539984,19.956 64.566,19.956 C64.8660015,19.956 65.1419987,19.9230003 65.394,19.857 C65.6460013,19.7909997 65.8619991,19.6800008 66.042,19.524 C66.2220009,19.3679992 66.3629995,19.1610013 66.465,18.903 C66.5670005,18.6449987 66.618,18.318002 66.618,17.922 L66.618,15.366 Z M69.192,24.546 L69.192,15.546 C69.192,15.0539975 69.2369995,14.6220019 69.327,14.25 C69.4170004,13.8779981 69.5429992,13.5600013 69.705,13.296 C69.8670008,13.0319987 70.0529989,12.8130009 70.263,12.639 C70.473001,12.4649991 70.7039987,12.3240005 70.956,12.216 C71.1720011,12.1199995 71.4089987,12.0450003 71.667,11.991 C71.9250013,11.9369997 72.2399981,11.91 72.612,11.91 C72.9240016,11.91 73.2179986,11.9369997 73.494,11.991 C73.7700014,12.0450003 74.0279988,12.1199995 74.268,12.216 C74.5200013,12.3240005 74.747999,12.4649991 74.952,12.639 C75.156001,12.8130009 75.3329992,13.0319987 75.483,13.296 C75.6330007,13.5600013 75.7499996,13.8749982 75.834,14.241 C75.9180004,14.6070018 75.96,15.0419975 75.96,15.546 L75.96,17.85 C75.96,18.9060053 75.6780028,19.7249971 75.114,20.307 C74.5499972,20.8890029 73.7160055,21.18 72.612,21.18 C72.2279981,21.18 71.8440019,21.1320005 71.46,21.036 C71.0759981,20.9399995 70.7280016,20.7720012 70.416,20.532 L70.398,24.816 L69.192,24.546 Z M74.664,15.366 C74.664,14.9459979 74.6040006,14.5920014 74.484,14.304 C74.3639994,14.0159986 74.208001,13.7820009 74.016,13.602 C73.823999,13.4219991 73.6050012,13.2930004 73.359,13.215 C73.1129988,13.1369996 72.8640013,13.098 72.612,13.098 C72.3599987,13.098 72.1050013,13.1369996 71.847,13.215 C71.5889987,13.2930004 71.361001,13.4219991 71.163,13.602 C70.964999,13.7820009 70.8030006,14.0159986 70.677,14.304 C70.5509994,14.5920014 70.488,14.9459979 70.488,15.366 L70.488,17.958 C70.488,18.6660035 70.688998,19.1759984 71.091,19.488 C71.493002,19.8000016 71.9999969,19.956 72.612,19.956 C72.9120015,19.956 73.1879987,19.9200004 73.44,19.848 C73.6920013,19.7759996 73.9079991,19.6590008 74.088,19.497 C74.2680009,19.3349992 74.4089995,19.1280013 74.511,18.876 C74.6130005,18.6239987 74.664,18.3180018 74.664,17.958 L74.664,15.366 Z M82.872,12.54 C83.3040022,12.8880017 83.5859993,13.259998 83.718,13.656 C83.8500007,14.052002 83.916,14.4959975 83.916,14.988 L83.916,17.31 L78.66,17.706 L78.66,18.516 C78.66,19.0320026 78.8279983,19.4069988 79.164,19.641 C79.5000017,19.8750012 79.9199975,19.992 80.424,19.992 C80.8080019,19.992 81.2219978,19.9320006 81.666,19.812 C82.1100022,19.6919994 82.5539978,19.5120012 82.998,19.272 L83.538,20.298 C83.0579976,20.5860014 82.5420028,20.8109992 81.99,20.973 C81.4379972,21.1350008 80.8920027,21.216 80.352,21.216 C79.4519955,21.216 78.7350027,21.0060021 78.201,20.586 C77.6669973,20.1659979 77.3880001,19.4760048 77.364,18.516 L77.364,14.862 C77.364,14.4179978 77.4359993,14.0130018 77.58,13.647 C77.7240007,13.2809982 77.9309986,12.9690013 78.201,12.711 C78.4710013,12.4529987 78.7949981,12.2550007 79.173,12.117 C79.5510019,11.9789993 79.9739977,11.91 80.442,11.91 C80.8980023,11.91 81.3539977,11.9669994 81.81,12.081 C82.2660023,12.1950006 82.6199987,12.347999 82.872,12.54 L82.872,12.54 Z M82.62,14.862 C82.62,14.4899981 82.5480007,14.1900011 82.404,13.962 C82.2599993,13.7339989 82.086001,13.5570006 81.882,13.431 C81.677999,13.3049994 81.4680011,13.2210002 81.252,13.179 C81.0359989,13.1369998 80.8500008,13.116 80.694,13.116 C80.4779989,13.116 80.2500012,13.1399998 80.01,13.188 C79.7699988,13.2360002 79.551001,13.3229994 79.353,13.449 C79.154999,13.5750006 78.9900007,13.7519989 78.858,13.98 C78.7259993,14.2080011 78.66,14.5019982 78.66,14.862 L78.66,16.482 L82.62,16.176 L82.62,14.862 Z M92.106,8.4 L92.106,15.456 L92.106,21 C91.6499977,21.0480002 91.1640026,21.0929998 90.648,21.135 C90.1319974,21.1770002 89.6250025,21.198 89.127,21.198 C88.6289975,21.198 88.1580022,21.1650003 87.714,21.099 C87.2699978,21.0329997 86.8980015,20.9160008 86.598,20.748 C86.1179976,20.4839987 85.7520013,20.1450021 85.5,19.731 C85.2479987,19.3169979 85.122,18.7800033 85.122,18.12 L85.122,14.88 C85.122,14.4479978 85.1999992,14.0550018 85.356,13.701 C85.5120008,13.3469982 85.7219987,13.0440013 85.986,12.792 C86.2500013,12.5399987 86.5589982,12.3420007 86.913,12.198 C87.2670018,12.0539993 87.647998,11.982 88.056,11.982 C88.5600025,11.9699999 89.0639975,12.0209994 89.568,12.135 C90.0720025,12.2490006 90.4979983,12.3599995 90.846,12.468 L90.846,12.288 L90.846,11.82 C90.846,11.627999 90.849,11.4090012 90.855,11.163 C90.861,10.9169988 90.864,10.6680013 90.864,10.416 L90.9,8.4 L92.106,8.4 Z M90.846,13.656 C90.653999,13.5599995 90.4080015,13.4730004 90.108,13.395 C89.8079985,13.3169996 89.4960016,13.2570002 89.172,13.215 C88.8479984,13.1729998 88.5210016,13.1639999 88.191,13.188 C87.8609983,13.2120001 87.5640013,13.2869994 87.3,13.413 C87.0359987,13.5390006 86.8230008,13.7249988 86.661,13.971 C86.4989992,14.2170012 86.418,14.537998 86.418,14.934 L86.418,18.318 C86.418,18.7980024 86.5649985,19.1669987 86.859,19.425 C87.1530015,19.6830013 87.5189978,19.8659995 87.957,19.974 C88.3950022,20.0820005 88.8719974,20.133 89.388,20.127 C89.9040026,20.121 90.3899977,20.0940002 90.846,20.046 L90.846,13.656 Z M93.564,21 L93.564,12 L94.86,12 L94.86,21 L93.564,21 Z M93.348,9.264 C93.348,9.0239988 93.4319992,8.82000084 93.6,8.652 C93.7680008,8.48399916 93.9719988,8.4 94.212,8.4 C94.4520012,8.4 94.6559992,8.48399916 94.824,8.652 C94.9920008,8.82000084 95.076,9.0239988 95.076,9.264 C95.076,9.5040012 94.9920008,9.70799916 94.824,9.876 C94.6559992,10.0440008 94.4520012,10.128 94.212,10.128 C93.9719988,10.128 93.7680008,10.0440008 93.6,9.876 C93.4319992,9.70799916 93.348,9.5040012 93.348,9.264 L93.348,9.264 Z M99.072,11.964 C99.8400038,12.0240003 100.469998,12.152999 100.962,12.351 C101.454002,12.549001 101.855998,12.851998 102.168,13.26 C102.288001,13.4400009 102.384,13.6079992 102.456,13.764 C102.528,13.9200008 102.579,14.0789992 102.609,14.241 C102.639,14.4030008 102.654,14.582999 102.654,14.781 L102.654,15.456 L102.654,21 C102.197998,21.0480002 101.712003,21.0929998 101.196,21.135 C100.679997,21.1770002 100.173002,21.198 99.675,21.198 C99.1769975,21.198 98.7060022,21.1650003 98.262,21.099 C97.8179978,21.0329997 97.4460015,20.9160008 97.146,20.748 C96.6659976,20.4839987 96.3000013,20.1450021 96.048,19.731 C95.7959987,19.3169979 95.67,18.7800033 95.67,18.12 L95.67,16.752 C95.67,15.9959962 95.8199985,15.4080021 96.12,14.988 C96.4200015,14.5679979 96.8159975,14.2680009 97.308,14.088 C97.716002,13.9319992 98.1479977,13.854 98.604,13.854 C99.1080025,13.854 99.6089975,13.9229993 100.107,14.061 C100.605002,14.1990007 101.027998,14.3339993 101.376,14.466 C101.352,14.2979992 101.298,14.1390007 101.214,13.989 C101.13,13.8389993 100.992001,13.7040006 100.8,13.584 C100.607999,13.4639994 100.356002,13.3590004 100.044,13.269 C99.7319984,13.1789996 99.3480023,13.1100002 98.892,13.062 L99.072,11.964 Z M99.036,15.132 C98.8919993,15.1199999 98.7030012,15.114 98.469,15.114 C98.2349988,15.114 98.0070011,15.1619995 97.785,15.258 C97.5629989,15.3540005 97.3710008,15.5219988 97.209,15.762 C97.0469992,16.0020012 96.966,16.3499977 96.966,16.806 L96.966,18.318 C96.966,18.7980024 97.1129985,19.1669987 97.407,19.425 C97.7010015,19.6830013 98.0669978,19.8659995 98.505,19.974 C98.9430022,20.0820005 99.4199974,20.133 99.936,20.127 C100.452003,20.121 100.937998,20.0940002 101.394,20.046 L101.394,15.762 C101.105999,15.6179993 100.740002,15.4830006 100.296,15.357 C99.8519978,15.2309994 99.4440019,15.1560001 99.072,15.132 L99.036,15.132 Z" id="Logo_Bedopedia" fill="#3D464D"></path>
                    <path d="M20.1878,17.5314286 C19.1926333,16.952 17.6444667,16.6617143 15.5456333,16.6617143 L5.4143,16.6617143 C5.2708,16.6617143 5.15296667,16.7748571 5.15296667,16.9142857 C5.16463333,16.9131429 5.17513333,16.9108571 5.1868,16.9108571 C5.80396667,16.9108571 6.30446667,18.6045714 6.30446667,20.6937143 C6.30446667,22.7828571 5.80396667,24.4765714 5.1868,24.4765714 C5.17513333,24.4765714 5.16463333,24.4742857 5.15296667,24.4731429 L5.15296667,24.4765714 C5.15296667,24.616 5.2708,24.7291429 5.4143,24.7291429 L14.7966333,24.7291429 C14.9401333,24.7291429 15.0579667,24.8422857 15.0579667,24.9817143 L15.0579667,27.7268571 C15.0579667,27.9417143 15.3158,28.0582857 15.4861333,27.9211429 L16.4801333,27.1188571 C16.5769667,27.0411429 16.7181333,27.0411429 16.8149667,27.1188571 L17.9209667,28.0102857 C18.0913,28.1474286 18.3491333,28.0308571 18.3491333,27.8171429 L18.3491333,24.6514286 C18.3491333,24.536 18.4296333,24.4377143 18.5439667,24.4068571 C18.8811333,24.3154286 19.2043,24.2 19.5134667,24.0571429 C20.1399667,23.7668571 20.6579667,23.352 21.0674667,22.8114286 C21.4758,22.2708571 21.6799667,21.5394286 21.6799667,20.616 C21.6799667,19.1394286 21.1829667,18.112 20.1878,17.5314286 M20.7559667,8.58742857 C20.7559667,7.17485714 20.2799667,6.192 19.3279667,5.63657143 C18.3748,5.08228571 16.8954667,4.80457143 14.8876333,4.80457143 L5.4143,4.80457143 C5.26963333,4.80457143 5.15296667,4.91771429 5.15296667,5.05714286 L5.15296667,12.2697143 C5.15296667,12.4091429 5.26963333,12.5222857 5.4143,12.5222857 L14.6916333,12.5222857 C15.3181333,12.5222857 15.9889667,12.4845714 16.7064667,12.4091429 C17.4239667,12.3325714 18.0819667,12.1565714 18.6828,11.8788571 C19.2813,11.6011429 19.7771333,11.2045714 20.1691333,10.6868571 C20.5599667,10.1702857 20.7559667,9.47085714 20.7559667,8.58742857 M24.0916333,14.9805714 C24.8686333,15.3634286 25.5289667,15.8502857 26.0749667,16.4434286 C26.6198,17.0365714 27.0491333,17.7234286 27.3629667,18.5005714 C27.6768,19.2788571 27.8343,20.1154286 27.8343,21.0114286 C27.8343,22.5405714 27.5204667,23.8137143 26.8928,24.8285714 C26.2651333,25.8434286 25.4414667,26.6605714 24.4183,27.28 C23.3963,27.8994286 22.2238,28.3417143 20.9019667,28.6045714 C19.5789667,28.8685714 18.2361333,29 16.8734667,29 L1.26113333,29 C1.11646667,29 0.9998,28.8868571 0.9998,28.7474286 L0.9998,1.25257143 C0.9998,1.11314286 1.11646667,1 1.26113333,1 L17.7321333,1 C18.8218,1 19.8998,1.12571429 20.9626333,1.376 C22.0266333,1.62628571 22.9728,2.03542857 23.8046333,2.60228571 C24.6364667,3.16914286 25.3119667,3.90057143 25.8299667,4.79657143 C26.3479667,5.69371429 26.6069667,6.77371429 26.6069667,8.04 C26.6069667,9.62171429 26.1426333,10.9268571 25.2163,11.9554286 C24.2888,12.9828571 23.0754667,13.7222857 21.5763,14.1702857 L21.5763,14.2491429 C22.4758,14.3542857 23.3146333,14.5988571 24.0916333,14.9805714" id="logo" fill="url(#linearGradient-1)"></path>
                </g>
            </g>
        </g>
    </g>
</svg>